<svg width="66" height="66" viewBox="0 0 66 66" xmlns="http://www.w3.org/2000/svg"><title>Welance_Logo</title><g transform="translate(1 1)" fill="none" fill-rule="evenodd"><rect stroke="#343A40" stroke-width="2" fill="#343A40" x=".638" y=".467" width="63.015" height="63.015" rx="6"/><path d="M39.97 52.842c-1.696 0-2.072-1.7-2.166-3.243-.063-1.07-.315-6.515-.315-7.081h-.156c-.942 2.486-1.633 5.76-1.758 8.592-.157.283-.597.346-.88.346-2.166 0-2.292-6.043-2.292-8.624 0-2.235.346-8.025 1.32-8.025.722 0 2.071.566 1.945 1.29-.5 2.58-.721 4.47-.721 7.27 0 .598.062 1.165.093 1.512h.157a66.267 66.267 0 0 0 2.733-10.293c.061-.315.282-.566.72-.566.409 0 1.79.44 1.696 1.007-.534 3.305-.878 7.743-.722 10.953h.22c.314-1.856 2.322-13.502 4.301-13.502.44 0 1.192.157 1.192.723 0 .252-.502 1.102-.91 2.235-1.79 4.973-3.578 11.708-3.578 16.964 0 0-.283.442-.88.442m7.848.44c-2.416 0-4.677-2.235-4.677-6.17 0-5.255 2.605-13.343 5.368-13.343 1.194 0 2.574.943 2.574 3.838 0 4.029-1.098 7.68-3.578 7.68-1.35 0-1.82-1.322-1.82-1.322s-.566 1.67-.566 4.218c0 1.48.566 2.58 2.166 2.58 2.418 0 4.363-3.933 4.363-6.01 0 0 0-.346.44-.346.502 0 .91.629.91 1.51 0 2.738-1.695 7.365-5.18 7.365zm-.973-9.883c1.099 0 2.041-3.557 2.041-6.453 0-1.321-.22-1.478-.377-1.478-.126 0-.283.125-.47.566-.754 1.7-1.633 4.28-1.978 6.578 0 0 .156.787.784.787z" fill="#F2F2F3"/></g></svg>